<?xml version="1.0" standalone="no"?>
<!DOCTYPE svg PUBLIC "-//W3C//DTD SVG 20010904//EN"
 "http://www.w3.org/TR/2001/REC-SVG-20010904/DTD/svg10.dtd">
<svg version="1.0" xmlns="http://www.w3.org/2000/svg"
 width="700.000000pt" height="700.000000pt" viewBox="0 0 700.000000 700.000000"
 preserveAspectRatio="xMidYMid meet">
<metadata>
Created by potrace 1.11, written by Peter Selinger 2001-2013
</metadata>
<g transform="translate(0.000000,700.000000) scale(0.100000,-0.100000)"
fill="#000000" stroke="none">
<path d="M4765 5817 c-729 -1112 -759 -1156 -750 -1122 77 317 82 594 14 902
-17 79 -25 96 -52 119 -44 37 -86 29 -179 -34 -398 -268 -688 -674 -793 -1109
-9 -40 -20 -73 -24 -73 -3 0 -31 40 -62 88 -178 275 -480 513 -798 627 -80 29
-112 31 -146 9 -39 -25 -49 -73 -41 -202 19 -313 117 -605 286 -851 l59 -86
-117 -7 c-137 -7 -271 -36 -397 -86 -170 -66 -215 -102 -215 -170 0 -59 209
-227 389 -313 278 -133 598 -165 887 -89 39 11 79 18 90 18 12 -1 221 149 526
379 585 441 516 406 793 406 215 0 371 -27 560 -96 172 -63 225 -99 225 -156
0 -40 -30 -80 -121 -163 -141 -128 -255 -204 -421 -283 -137 -64 -374 -135
-453 -135 -25 0 -21 -6 50 -82 95 -102 172 -216 229 -339 82 -177 91 -233 43
-277 -34 -31 -58 -34 -189 -22 -409 37 -758 243 -985 583 l-46 69 -48 -74
c-565 -860 -807 -1233 -803 -1240 3 -4 682 -8 1510 -8 l1504 0 0 2305 c0 1268
-1 2305 -2 2305 -2 0 -237 -357 -523 -793z m-896 -425 c76 -591 -183 -1211
-654 -1566 l-50 -38 -8 39 c-15 76 -20 381 -8 476 50 374 218 723 475 982 91
92 211 195 227 195 4 0 11 -40 18 -88z m-1656 -428 c137 -70 239 -144 363
-268 126 -127 201 -228 273 -372 70 -141 88 -205 101 -362 6 -79 14 -150 17
-158 7 -19 0 -18 -60 12 -374 189 -662 566 -747 979 -23 109 -35 205 -26 205
4 0 39 -16 79 -36z m230 -1096 c42 -8 70 -21 100 -46 52 -43 163 -117 242
-162 l60 -34 -45 -13 c-137 -40 -368 -48 -505 -19 -95 21 -224 65 -297 102
-52 26 -168 101 -168 109 0 7 156 54 215 65 120 21 280 20 398 -2z"/>
<path d="M5780 3210 l0 -2531 -1952 3 -1953 3 -79 23 c-97 27 -166 58 -237
106 l-53 36 -93 -142 c-51 -78 -93 -146 -93 -152 0 -6 26 -28 58 -48 137 -88
290 -146 446 -167 53 -8 732 -11 2157 -11 l2079 0 0 2705 0 2705 -140 0 -140
0 0 -2530z"/>
<path d="M4010 4016 c-146 -27 -308 -79 -421 -136 -50 -26 -208 -168 -233
-211 -17 -29 -17 -29 11 -40 55 -21 208 -50 303 -57 359 -27 705 73 986 284
109 82 109 79 12 109 -151 48 -206 56 -398 60 -128 3 -208 0 -260 -9z"/>
<path d="M3303 3409 c108 -182 279 -339 474 -437 103 -52 353 -121 353 -98 0
14 -63 131 -98 179 -82 117 -238 263 -326 306 -23 11 -82 24 -136 30 -80 9
-198 34 -274 57 -16 5 -15 1 7 -37z"/>
<path d="M1975 1483 c-11 -3 -34 -16 -52 -29 -74 -56 -57 -176 30 -218 32 -15
173 -16 1686 -16 l1651 0 0 135 0 135 -1647 -1 c-907 -1 -1657 -4 -1668 -6z"/>
</g>
</svg>
