<svg xmlns="http://www.w3.org/2000/svg" width="982.0000031789141" height="310.22223882321873" style=""><rect id="backgroundrect" width="100%" height="100%" x="0" y="0" fill="none" stroke="none" class="selected" style=""/><g class="currentLayer" style=""><title>Layer 1</title><g transform="translate(504.5,181.5) translate(-504.5,-181.5) " opacity="1" id="svg_1" class=""><path d="M100.00777791023255,266.13 L100.00777791023255,266.13 L100.00777791023255,266.13 Q140.77777791023254,266.13 140.77777791023254,213.51 L140.77777791023254,213.51 L140.77777791023254,205.25 L140.77777791023254,205.25 Q134.71777791023254,214.89 121.62777791023254,221.64 L121.62777791023254,221.64 L121.62777791023254,221.64 Q108.54777791023254,228.39 93.66777791023254,228.39 L93.66777791023254,228.39 L93.66777791023254,228.39 Q64.46777791023254,228.39 45.737777910232545,208 L45.737777910232545,208 L45.737777910232545,208 Q26.997777910232543,187.62 26.997777910232543,157.30999999999995 L26.997777910232543,157.30999999999995 L26.997777910232543,157.30999999999995 Q26.997777910232543,127.00999999999999 45.737777910232545,106.63 L45.737777910232545,106.63 L45.737777910232545,106.63 Q64.46777791023254,86.24000000000001 92.97777791023255,86.24000000000001 L92.97777791023255,86.24000000000001 L92.97777791023255,86.24000000000001 Q121.48777791023254,86.24000000000001 140.77777791023254,106.08000000000004 L140.77777791023254,106.08000000000004 L140.77777791023254,88.44 L171.62777791023254,88.44 L171.62777791023254,214.34000000000003 L171.62777791023254,214.34000000000003 Q171.62777791023254,252.63 151.65777791023254,273.02 L151.65777791023254,273.02 L151.65777791023254,273.02 Q131.68777791023254,293.4 100.00777791023255,293.4 L100.00777791023255,293.4 L100.00777791023255,293.4 Q75.75777791023253,293.4 57.43777791023254,281.8299999999999 L57.43777791023254,281.8299999999999 L57.43777791023254,281.8299999999999 Q39.11777791023255,270.26 30.857777910232542,248.76999999999998 L30.857777910232542,248.76999999999998 L57.85777791023254,237.20000000000005 L57.85777791023254,237.20000000000005 Q68.87777791023254,266.13 100.00777791023255,266.13 zM57.307777910232545,156.06999999999994 L57.307777910232545,156.06999999999994 L57.307777910232545,156.06999999999994 Q57.307777910232545,174.12 68.45777791023255,187.20000000000005 L68.45777791023255,187.20000000000005 L68.45777791023255,187.20000000000005 Q79.61777791023255,200.28999999999996 98.48777791023254,200.28999999999996 L98.48777791023254,200.28999999999996 L98.48777791023254,200.28999999999996 Q117.35777791023254,200.28999999999996 129.06777791023256,187.62 L129.06777791023256,187.62 L129.06777791023256,187.62 Q140.77777791023254,174.95000000000005 140.77777791023254,156.06999999999994 L140.77777791023254,156.06999999999994 L140.77777791023254,156.06999999999994 Q140.77777791023254,137.2 128.92777791023255,124.12 L128.92777791023255,124.12 L128.92777791023255,124.12 Q117.08777791023255,111.02999999999997 98.34777791023254,111.02999999999997 L98.34777791023254,111.02999999999997 L98.34777791023254,111.02999999999997 Q79.61777791023255,111.02999999999997 68.45777791023255,124.52999999999997 L68.45777791023255,124.52999999999997 L68.45777791023255,124.52999999999997 Q57.307777910232545,138.02999999999997 57.307777910232545,156.06999999999994 zM293.1177779102325,117.37 L293.1177779102325,117.37 L293.1177779102325,117.37 Q270.24777791023257,117.37 258.6777779102325,132.25 L258.6777779102325,132.25 L258.6777779102325,132.25 Q247.10777791023256,147.12 247.10777791023256,172.19000000000005 L247.10777791023256,172.19000000000005 L247.10777791023256,235 L216.25777791023253,235 L216.25777791023253,88.44 L247.10777791023256,88.44 L247.10777791023256,117.91999999999996 L247.10777791023256,117.91999999999996 Q254.54777791023253,104.14999999999998 267.3577779102326,95.32999999999998 L267.3577779102326,95.32999999999998 L267.3577779102326,95.32999999999998 Q280.16777791023253,86.51999999999998 294.4877779102325,86.24000000000001 L294.4877779102325,86.24000000000001 L294.76777791023255,117.37 L294.76777791023255,117.37 Q293.93777791023257,117.37 293.1177779102325,117.37 zM359.91777791023253,196.29999999999995 L359.91777791023253,196.29999999999995 L359.91777791023253,196.29999999999995 Q373.00777791023256,209.65999999999997 393.1177779102325,209.65999999999997 L393.1177779102325,209.65999999999997 L393.1177779102325,209.65999999999997 Q413.22777791023253,209.65999999999997 426.3077779102325,196.29999999999995 L426.3077779102325,196.29999999999995 L426.3077779102325,196.29999999999995 Q439.39777791023255,182.93000000000006 439.39777791023255,161.72000000000003 L439.39777791023255,161.72000000000003 L439.39777791023255,161.72000000000003 Q439.39777791023255,140.51 426.3077779102325,127.14999999999998 L426.3077779102325,127.14999999999998 L426.3077779102325,127.14999999999998 Q413.22777791023253,113.78999999999996 393.1177779102325,113.78999999999996 L393.1177779102325,113.78999999999996 L393.1177779102325,113.78999999999996 Q373.00777791023256,113.78999999999996 359.91777791023253,127.14999999999998 L359.91777791023253,127.14999999999998 L359.91777791023253,127.14999999999998 Q346.83777791023255,140.51 346.83777791023255,161.72000000000003 L346.83777791023255,161.72000000000003 L346.83777791023255,161.72000000000003 Q346.83777791023255,182.93000000000006 359.91777791023253,196.29999999999995 zM448.20777791023255,215.29999999999995 L448.20777791023255,215.29999999999995 L448.20777791023255,215.29999999999995 Q426.16777791023253,237.20000000000005 393.1177779102325,237.20000000000005 L393.1177779102325,237.20000000000005 L393.1177779102325,237.20000000000005 Q360.0577779102325,237.20000000000005 338.01777791023255,215.29999999999995 L338.01777791023255,215.29999999999995 L338.01777791023255,215.29999999999995 Q315.97777791023253,193.39999999999998 315.97777791023253,161.72000000000003 L315.97777791023253,161.72000000000003 L315.97777791023253,161.72000000000003 Q315.97777791023253,130.03999999999996 338.01777791023255,108.13999999999999 L338.01777791023255,108.13999999999999 L338.01777791023255,108.13999999999999 Q360.0577779102325,86.24000000000001 393.1177779102325,86.24000000000001 L393.1177779102325,86.24000000000001 L393.1177779102325,86.24000000000001 Q426.16777791023253,86.24000000000001 448.20777791023255,108.13999999999999 L448.20777791023255,108.13999999999999 L448.20777791023255,108.13999999999999 Q470.24777791023257,130.03999999999996 470.24777791023257,161.72000000000003 L470.24777791023257,161.72000000000003 L470.24777791023257,161.72000000000003 Q470.24777791023257,193.39999999999998 448.20777791023255,215.29999999999995 zM608.5377779102325,134.73000000000002 L573.8277779102325,235 L538.5677779102325,235 L487.87777791023257,88.44 L519.8377779102325,88.44 L556.1977779102325,199.19000000000005 L592.5577779102325,88.44 L624.5177779102326,88.44 L660.8777779102326,199.19000000000005 L697.2477779102326,88.44 L729.1977779102325,88.44 L678.5077779102326,235 L643.2477779102326,235 L608.5377779102325,134.73000000000002 zM787.3277779102325,88.44 L787.3277779102325,235 L756.4777779102326,235 L756.4777779102326,88.44 L787.3277779102325,88.44 zM758.3977779102325,59.24000000000001 L758.3977779102325,59.24000000000001 L758.3977779102325,59.24000000000001 Q752.6177779102326,53.45999999999998 752.6177779102326,45.47000000000003 L752.6177779102326,45.47000000000003 L752.6177779102326,45.47000000000003 Q752.6177779102326,37.48000000000002 758.3977779102325,31.69999999999999 L758.3977779102325,31.69999999999999 L758.3977779102325,31.69999999999999 Q764.1877779102325,25.909999999999968 772.1777779102325,25.909999999999968 L772.1777779102325,25.909999999999968 L772.1777779102325,25.909999999999968 Q780.1677779102325,25.909999999999968 785.9477779102325,31.69999999999999 L785.9477779102325,31.69999999999999 L785.9477779102325,31.69999999999999 Q791.7377779102326,37.48000000000002 791.7377779102326,45.47000000000003 L791.7377779102326,45.47000000000003 L791.7377779102326,45.47000000000003 Q791.7377779102326,53.45999999999998 785.9477779102325,59.24000000000001 L785.9477779102325,59.24000000000001 L785.9477779102325,59.24000000000001 Q780.1677779102325,65.02999999999997 772.1777779102325,65.02999999999997 L772.1777779102325,65.02999999999997 L772.1777779102325,65.02999999999997 Q764.1877779102325,65.02999999999997 758.3977779102325,59.24000000000001 zM892.8377779102325,265.29999999999995 L892.8377779102325,265.29999999999995 L892.8377779102325,265.29999999999995 Q933.6077779102326,265.29999999999995 933.6077779102326,213.51 L933.6077779102326,213.51 L933.6077779102326,204.41999999999996 L933.6077779102326,204.41999999999996 Q915.1477779102325,223.43000000000006 886.4977779102326,223.43000000000006 L886.4977779102326,223.43000000000006 L886.4977779102326,223.43000000000006 Q829.4777779102326,223.43000000000006 829.4777779102326,160.89999999999998 L829.4777779102326,160.89999999999998 L829.4777779102326,88.72000000000003 L860.3277779102325,88.72000000000003 L860.3277779102325,147.12 L860.3277779102325,147.12 Q860.3277779102325,172.74 868.1777779102325,183.35000000000002 L868.1777779102325,183.35000000000002 L868.1777779102325,183.35000000000002 Q876.0277779102325,193.95000000000005 895.1777779102325,193.95000000000005 L895.1777779102325,193.95000000000005 L895.1777779102325,193.95000000000005 Q914.3277779102325,193.95000000000005 923.1377779102326,184.16999999999996 L923.1377779102326,184.16999999999996 L923.1377779102326,184.16999999999996 Q931.9577779102325,174.39 933.6077779102326,154.55999999999995 L933.6077779102326,154.55999999999995 L933.6077779102326,88.44 L964.4577779102325,88.44 L964.4577779102325,214.34000000000003 L964.4577779102325,214.34000000000003 Q964.4577779102325,252.63 944.4877779102326,273.02 L944.4877779102326,273.02 L944.4877779102326,273.02 Q924.5177779102326,293.4 892.8377779102325,293.4 L892.8377779102325,293.4 L892.8377779102325,293.4 Q868.5977779102326,293.4 850.2777779102325,281.8299999999999 L850.2777779102325,281.8299999999999 L850.2777779102325,281.8299999999999 Q831.9577779102325,270.26 823.6877779102325,248.76999999999998 L823.6877779102325,248.76999999999998 L851.5177779102326,236.93000000000006 L851.5177779102326,236.93000000000006 Q862.2577779102326,265.29999999999995 892.8377779102325,265.29999999999995 z" fill="#32c125" id="svg_2"/></g></g></svg>